<?xml version="1.0" encoding="UTF-8"?>
<svg xmlns="http://www.w3.org/2000/svg" xmlns:xlink="http://www.w3.org/1999/xlink" width="1920" height="2400" viewBox="0 0 1920 2400">
<rect x="-192" y="-240" width="2304" height="2880" fill="rgb(100%, 100%, 100%)" fill-opacity="1"/>
<path fill-rule="evenodd" fill="rgb(68.943787%, 84.764099%, 84.375%)" fill-opacity="1" d="M 1591.078125 120.511719 C 1822.390625 120.511719 1802.019531 319 1802.910156 572.070312 L 1748.601562 2033.53125 C 1749.300781 2231.539062 1770.320312 2279.496094 1486.320312 2279.496094 C 1065.820312 2279.496094 646.28125 2279.496094 226.707031 2279.496094 C 128.296875 2279.496094 135.582031 2231.539062 135.824219 2033.53125 L 117.007812 572.058594 C 117.316406 319 110.257812 120.511719 190.402344 120.511719 C 657.230469 120.511719 1124.171875 120.511719 1591.078125 120.511719 "/>
<path fill-rule="evenodd" fill="rgb(56.054688%, 77.734375%, 78.514099%)" fill-opacity="1" d="M 966 2153.144531 C 1282.101562 2153.144531 1538.359375 2073.691406 1538.359375 1975.683594 C 1538.359375 1912.800781 1432.859375 1857.558594 1273.75 1826.035156 C 1285.058594 1815.789062 1291.199219 1804.804688 1291.199219 1793.375 C 1291.199219 1737.6875 1145.609375 1692.546875 966 1692.546875 C 786.394531 1692.546875 640.796875 1737.6875 640.796875 1793.375 C 640.796875 1804.804688 646.945312 1815.789062 658.253906 1826.035156 C 499.140625 1857.558594 393.640625 1912.800781 393.640625 1975.683594 C 393.640625 2073.691406 649.894531 2153.144531 966 2153.144531 "/>
<path fill-rule="evenodd" fill="rgb(41.184998%, 33.738708%, 31.37207%)" fill-opacity="1" d="M 687.113281 891.960938 C 504.660156 1085.75 431.640625 1450.425781 437.085938 1625.636719 C 445.871094 1908.320312 680.367188 2039.265625 968.449219 2039.128906 C 1379.789062 2038.933594 1456.890625 1726.0625 1481.621094 1511.976562 C 1496.761719 1380.980469 1401.398438 1095.230469 1252.570312 871.449219 L 687.113281 891.960938 "/>
<path fill-rule="evenodd" fill="rgb(56.443787%, 46.679688%, 34.521484%)" fill-opacity="1" d="M 1116.511719 877.859375 L 800.269531 889.320312 C 659.003906 1169.058594 618.503906 1529.675781 667.324219 1682.460938 C 752.636719 1949.460938 1183.140625 1934.726562 1263.859375 1672.621094 C 1328.761719 1461.832031 1176 1037.769531 1116.511719 877.859375 "/>
<path fill-rule="evenodd" fill="rgb(64.646912%, 55.664062%, 44.309998%)" fill-opacity="1" d="M 1109.75 878.109375 L 1103.878906 878.339844 C 1103.421875 883.949219 1103.238281 886.449219 1103.238281 886.449219 C 1103.238281 886.449219 1105.871094 885.039062 1109.75 878.109375 Z M 1069.421875 879.738281 L 1057.300781 880.230469 L 1056.871094 886.488281 C 1050.761719 975.21875 1054.820312 1000.210938 1054.820312 1000.210938 C 1054.820312 1000.210938 1065.960938 941.640625 1069.421875 879.738281 Z M 1027.898438 881.429688 L 1009.328125 882.179688 L 1008.96875 890.011719 C 1002.660156 1029.089844 1009.960938 1062.078125 1009.960938 1062.078125 C 1009.960938 1062.078125 1021.449219 971.519531 1027.898438 881.429688 Z M 973.777344 883.621094 L 957.507812 884.289062 L 957.449219 885.101562 C 952.519531 955.21875 957.78125 1063.339844 957.78125 1063.339844 C 957.78125 1063.339844 966.789062 1039.871094 971.148438 945.671875 C 972.234375 922.28125 973.09375 901.558594 973.777344 883.621094 Z M 927.269531 885.511719 L 915.90625 885.980469 C 915.976562 905.640625 916.039062 918.519531 916.105469 919.640625 C 918.523438 962.199219 923.570312 1033.429688 923.570312 1033.429688 C 924.324219 1019.539062 925.90625 951.769531 927.269531 885.511719 Z M 876.042969 887.589844 L 861.441406 888.191406 C 861.917969 943.820312 862.996094 964.359375 862.996094 964.359375 C 862.996094 964.359375 873.828125 958.738281 875.863281 913.671875 C 876.210938 906.03125 876.238281 897.121094 876.042969 887.589844 Z M 825.003906 889.660156 L 809.457031 890.300781 C 809.628906 896.078125 809.820312 902.011719 810.042969 908.101562 C 814.835938 1040.25 817.472656 1081.101562 817.472656 1081.101562 C 817.472656 1081.101562 828.8125 1072.039062 828.644531 986.28125 C 828.59375 960.421875 827.082031 925.628906 825.003906 889.660156 Z M 779.800781 937.820312 C 777.601562 943.070312 775.40625 948.320312 773.269531 953.550781 C 773.191406 974.839844 773.75 1002.699219 775.691406 1037.839844 C 781.078125 1135.390625 784.042969 1168.261719 784.042969 1168.261719 C 784.042969 1168.261719 793.265625 1160.171875 792.03125 1095.78125 C 791.222656 1053.589844 784.40625 982.121094 779.800781 937.820312 Z M 709.367188 1138.898438 C 706.3125 1149.929688 703.441406 1160.851562 700.714844 1171.679688 C 704.332031 1207.421875 706.347656 1221.390625 706.347656 1221.390625 C 706.347656 1221.390625 715.546875 1217.109375 714.265625 1182.761719 C 713.816406 1170.71875 711.800781 1154.671875 709.367188 1138.898438 Z M 677.753906 1282.96875 L 676.878906 1288.730469 C 677.222656 1287.050781 677.523438 1285.148438 677.753906 1282.96875 Z M 665.527344 1403.886719 C 664.753906 1423.136719 664.617188 1441.847656 665.054688 1460.050781 C 666.519531 1468.652344 667.480469 1474.179688 667.605469 1474.683594 C 673.355469 1497.773438 683.535156 1536.257812 683.535156 1536.257812 C 682.4375 1524.285156 671.09375 1442.269531 665.527344 1403.886719 Z M 681.472656 1598.488281 C 684.152344 1610.273438 687.136719 1621.691406 690.402344 1632.777344 C 692.097656 1629.773438 693.753906 1624.117188 693.089844 1613.695312 C 691.847656 1594.125 680.964844 1556.777344 680.964844 1556.777344 C 680.964844 1556.777344 677.183594 1567.179688 681.128906 1595.992188 Z M 736.675781 1739.695312 C 739.136719 1743.746094 741.652344 1747.703125 744.21875 1751.585938 C 742.472656 1737.566406 741.347656 1730.640625 741.347656 1730.640625 C 741.347656 1730.640625 738.460938 1732.449219 736.675781 1739.695312 Z M 767.238281 1782.523438 L 768.375 1783.84375 C 768.359375 1775.332031 768.023438 1726.082031 762.652344 1692.671875 C 756.75 1655.992188 746.347656 1646.683594 746.347656 1646.683594 C 746.347656 1646.683594 748.570312 1672.125 754.753906 1721.75 C 759.472656 1759.640625 764.925781 1776.613281 767.238281 1782.523438 Z M 797.386719 1813.671875 C 800.308594 1816.273438 803.261719 1818.789062 806.25 1821.238281 C 804.953125 1802.695312 803.933594 1793.449219 803.933594 1793.449219 C 803.933594 1793.449219 798.488281 1797.058594 797.386719 1813.671875 Z M 824.617188 1834.996094 L 826.589844 1836.347656 C 828.359375 1833.332031 830.894531 1826.273438 830.988281 1810.59375 C 831.136719 1786.417969 824.207031 1739.804688 824.207031 1739.804688 C 824.207031 1739.804688 820.390625 1753.613281 822.027344 1789.363281 C 823.203125 1814.949219 824.167969 1829.042969 824.617188 1834.996094 Z M 852.289062 1851.410156 C 854.878906 1852.726562 857.472656 1854.023438 860.097656 1855.238281 C 859.550781 1838.035156 855.878906 1815.242188 855.878906 1815.242188 C 855.878906 1815.242188 851.859375 1824.382812 852.246094 1848.921875 Z M 876.410156 1862.019531 C 878.320312 1862.734375 880.230469 1863.445312 882.152344 1864.109375 C 882.832031 1856.875 883.367188 1847.328125 883.480469 1834.882812 C 883.828125 1795.996094 883.152344 1776.160156 883.152344 1776.160156 C 883.152344 1776.160156 875.804688 1782.214844 874.53125 1810.820312 C 873.84375 1826.335938 875.109375 1846.660156 876.410156 1862.019531 Z M 983.859375 1875.949219 C 985.242188 1875.867188 986.578125 1875.734375 987.957031 1875.640625 C 989.5625 1869.53125 991.394531 1860.421875 992.867188 1847.269531 C 996.300781 1816.734375 997.203125 1801.601562 997.203125 1801.601562 C 997.203125 1801.601562 989.683594 1806.121094 986.171875 1828.410156 C 983.859375 1843.078125 983.699219 1863.617188 983.859375 1875.949219 Z M 1032.589844 1870.023438 C 1035.109375 1869.542969 1037.691406 1869.140625 1040.171875 1868.613281 C 1043.46875 1851.980469 1043.71875 1822.714844 1043.71875 1822.714844 C 1043.71875 1822.714844 1038.351562 1831.746094 1034.699219 1855.675781 C 1033.859375 1861.226562 1033.160156 1865.988281 1032.589844 1870.023438 Z M 1056.238281 1864.691406 C 1058.53125 1864.070312 1060.800781 1863.441406 1063.03125 1862.777344 C 1064.359375 1857.007812 1065.769531 1850.132812 1067.210938 1841.980469 C 1073.878906 1804.121094 1076.390625 1784.800781 1076.390625 1784.800781 C 1076.390625 1784.800781 1068.328125 1790.691406 1062.449219 1818.457031 C 1059.519531 1832.335938 1057.519531 1850.242188 1056.238281 1864.691406 Z M 1081.851562 1856.464844 C 1083.398438 1855.886719 1084.910156 1855.277344 1086.441406 1854.675781 C 1088.089844 1852.402344 1089.859375 1849.023438 1091.289062 1844.035156 C 1095.019531 1831 1095.398438 1806.613281 1095.398438 1806.613281 C 1095.398438 1806.613281 1090.039062 1813.421875 1086.21875 1832.492188 C 1083.671875 1845.214844 1082.410156 1852.8125 1081.851562 1856.464844 Z M 1107.25 1845.457031 C 1109.808594 1844.167969 1112.269531 1842.78125 1114.761719 1841.414062 C 1116 1831.097656 1116.421875 1821.847656 1116.421875 1821.847656 C 1116.421875 1821.847656 1111.46875 1828.191406 1107.25 1845.457031 Z M 1138.730469 1826.417969 C 1141.871094 1824.160156 1144.921875 1821.828125 1147.921875 1819.4375 C 1150.628906 1806.101562 1151.710938 1789.855469 1151.710938 1789.855469 C 1151.710938 1789.855469 1145.949219 1796.855469 1141.140625 1816.378906 C 1140.210938 1820.15625 1139.410156 1823.488281 1138.730469 1826.417969 Z M 1170.609375 1798.59375 C 1174.550781 1794.453125 1178.359375 1790.195312 1181.988281 1785.777344 C 1183.519531 1779.394531 1184.199219 1776.226562 1184.199219 1776.226562 C 1184.199219 1776.226562 1177.320312 1780.140625 1170.609375 1798.59375 Z M 1244.851562 1378.011719 C 1243.140625 1365.191406 1241.230469 1352.308594 1239.171875 1339.441406 C 1236.519531 1351.96875 1233.589844 1365.921875 1230.441406 1381.261719 C 1214.148438 1460.367188 1216.671875 1481 1216.671875 1481 C 1216.671875 1481 1232.660156 1429.027344 1244.851562 1378.011719 Z M 1226.949219 1271.710938 C 1225.730469 1265.589844 1224.460938 1259.488281 1223.179688 1253.390625 C 1218.859375 1275.550781 1217.488281 1284.46875 1217.488281 1284.46875 C 1217.488281 1284.46875 1221.621094 1282.519531 1226.949219 1271.710938 Z M 1209.808594 1193.980469 C 1207.589844 1184.679688 1205.328125 1175.429688 1203.019531 1166.25 C 1202.519531 1168.710938 1202.019531 1171.261719 1201.519531 1173.898438 C 1192.328125 1222.429688 1189.890625 1240.578125 1189.890625 1240.578125 C 1189.890625 1240.578125 1199.660156 1236.339844 1207.691406 1203.660156 C 1208.429688 1200.671875 1209.140625 1197.410156 1209.808594 1193.980469 Z M 1185.609375 1100.519531 C 1183.648438 1093.429688 1181.671875 1086.410156 1179.691406 1079.460938 C 1175.488281 1092.589844 1170.761719 1110.789062 1166.121094 1135.769531 C 1152.789062 1207.511719 1143.820312 1314.851562 1143.820312 1314.851562 C 1143.820312 1314.851562 1154.25 1292.039062 1170.148438 1196.328125 C 1176.71875 1156.789062 1181.851562 1124.640625 1185.609375 1100.519531 Z M 1155.609375 998.660156 C 1151.929688 986.800781 1148.289062 975.269531 1144.730469 964.101562 C 1129.28125 1081.179688 1125.449219 1118.191406 1125.449219 1118.191406 C 1125.449219 1118.191406 1137.800781 1109.03125 1151.210938 1028.140625 C 1152.679688 1019.289062 1154.148438 1009.351562 1155.609375 998.660156 Z M 1034.808594 1629.140625 C 1034.808594 1629.140625 1026.878906 1642.980469 1022.449219 1679.183594 C 1018.019531 1715.382812 1017.25 1728.988281 1017.25 1728.988281 C 1017.25 1728.988281 1026.070312 1725.546875 1030.859375 1701.0625 C 1035.660156 1676.578125 1034.808594 1629.140625 1034.808594 1629.140625 Z M 990.628906 1770.152344 C 990.628906 1770.152344 987.832031 1760.609375 989.910156 1729.894531 C 991.984375 1699.183594 993.65625 1684.34375 993.65625 1684.34375 C 993.65625 1684.34375 997.933594 1703.722656 997.246094 1725.613281 C 996.5625 1747.5 990.628906 1770.152344 990.628906 1770.152344 Z M 964.242188 1793.605469 C 964.242188 1793.605469 959.480469 1780.191406 961.628906 1732.074219 C 963.78125 1683.964844 965.886719 1659.339844 965.886719 1659.339844 C 965.886719 1659.339844 974.390625 1668.453125 973.984375 1703.976562 C 973.585938 1739.492188 964.242188 1793.605469 964.242188 1793.605469 Z M 966.699219 1815.046875 C 966.699219 1815.046875 962 1821.8125 960.328125 1840.738281 C 958.652344 1859.664062 958.605469 1867.199219 958.605469 1867.199219 C 958.605469 1867.199219 964.578125 1865.1875 966.871094 1852.183594 C 969.160156 1839.179688 966.699219 1815.046875 966.699219 1815.046875 Z M 1119.089844 1663.691406 C 1119.511719 1661.511719 1124.871094 1669.691406 1121.339844 1696.800781 C 1120.679688 1701.902344 1104.679688 1783.351562 1102.179688 1793.316406 C 1102.179688 1793.316406 1103.378906 1768.46875 1104.398438 1753.777344 C 1104.519531 1751.988281 1118.691406 1665.78125 1119.089844 1663.691406 Z M 1025.460938 1749.609375 C 1025.460938 1749.609375 1019.558594 1762.925781 1015.261719 1797.664062 C 1010.960938 1832.40625 1010.011719 1845.386719 1010.011719 1845.386719 C 1010.011719 1845.386719 1016.351562 1841.996094 1020.460938 1818.503906 C 1024.570312 1795.003906 1025.460938 1749.609375 1025.460938 1749.609375 Z M 1085.761719 1708.402344 C 1085.761719 1708.402344 1079.941406 1716.378906 1075.96875 1738.839844 C 1072 1761.304688 1071.109375 1770.199219 1071.109375 1770.199219 C 1071.109375 1770.199219 1077.75 1767.859375 1081.679688 1752.480469 C 1085.609375 1737.097656 1085.761719 1708.402344 1085.761719 1708.402344 Z M 1120.699219 1803.203125 C 1120.699219 1803.203125 1127.460938 1794.234375 1134.699219 1761.734375 C 1141.949219 1729.238281 1144.679688 1713.320312 1144.679688 1713.320312 C 1144.679688 1713.320312 1136.28125 1717.820312 1129.878906 1741.402344 C 1123.480469 1764.980469 1120.699219 1803.203125 1120.699219 1803.203125 Z M 1058.46875 1689.878906 C 1058.46875 1689.878906 1050.820312 1707.5625 1044.511719 1752.027344 C 1038.191406 1796.496094 1036.609375 1812.578125 1036.609375 1812.578125 C 1036.609375 1812.578125 1044.039062 1808.265625 1049.800781 1778.34375 C 1055.558594 1748.421875 1058.46875 1689.878906 1058.46875 1689.878906 Z M 1075.351562 1255.261719 C 1075.351562 1255.261719 1064.671875 1278.03125 1057.851562 1336.628906 C 1051.019531 1395.238281 1049.691406 1416.460938 1049.691406 1416.460938 C 1049.691406 1416.460938 1060.789062 1411.496094 1067.660156 1372.300781 C 1074.53125 1333.101562 1075.351562 1255.261719 1075.351562 1255.261719 Z M 1015.238281 1480.5625 C 1015.238281 1480.5625 1011.898438 1466 1015.289062 1417.289062 C 1018.679688 1368.570312 1021.128906 1344.191406 1021.128906 1344.191406 C 1021.128906 1344.191406 1026.058594 1375.730469 1024.628906 1410.574219 C 1023.210938 1445.414062 1015.238281 1480.5625 1015.238281 1480.5625 Z M 982.039062 1516.421875 C 982.039062 1516.421875 976.273438 1496.253906 979.792969 1419.941406 C 983.3125 1343.628906 986.394531 1302.871094 986.394531 1302.871094 C 986.394531 1302.871094 997.011719 1318.5 995.863281 1375.441406 C 994.71875 1432.375 982.039062 1516.421875 982.039062 1516.421875 Z M 984.636719 1549.246094 C 984.636719 1549.246094 978.808594 1559.382812 976.449219 1588.066406 C 974.09375 1616.757812 973.933594 1627.964844 973.933594 1627.964844 C 973.933594 1627.964844 981.160156 1625.230469 984.199219 1605.796875 C 987.234375 1586.359375 984.636719 1549.246094 984.636719 1549.246094 Z M 1181.109375 1314.488281 C 1181.730469 1311.199219 1187.988281 1324.269531 1181.910156 1367.949219 C 1180.761719 1376.238281 1156.171875 1503.902344 1152.648438 1519.09375 C 1152.648438 1519.09375 1155.351562 1480.707031 1157.421875 1457.71875 C 1157.648438 1455.097656 1180.460938 1317.949219 1181.109375 1314.488281 Z M 1168.480469 1563.085938 C 1168.480469 1563.085938 1161.269531 1574.007812 1154.898438 1603.675781 C 1148.53125 1633.347656 1146.761719 1644.78125 1146.761719 1644.78125 C 1146.761719 1644.78125 1154.199219 1641.855469 1159.921875 1621.734375 C 1165.628906 1601.613281 1168.480469 1563.085938 1168.480469 1563.085938 Z M 1143.558594 1539.539062 C 1143.558594 1539.539062 1136.511719 1549.84375 1130.910156 1578.632812 C 1125.300781 1607.425781 1123.929688 1618.664062 1123.929688 1618.664062 C 1123.929688 1618.664062 1131.421875 1615.8125 1136.628906 1596.300781 C 1141.851562 1576.792969 1143.558594 1539.539062 1143.558594 1539.539062 Z M 1079.320312 1562.875 C 1079.320312 1562.875 1072.371094 1576.578125 1067.070312 1612.390625 C 1061.78125 1648.210938 1060.570312 1661.882812 1060.570312 1661.882812 C 1060.570312 1661.882812 1067.78125 1658.394531 1072.769531 1634.089844 C 1077.761719 1609.78125 1079.320312 1562.875 1079.320312 1562.875 Z M 1059.328125 1449.199219 C 1059.328125 1449.199219 1051.480469 1470.289062 1045.121094 1523.769531 C 1038.75 1577.238281 1037.261719 1596.253906 1037.261719 1596.253906 C 1037.261719 1596.253906 1045.058594 1591.53125 1050.820312 1555.730469 C 1056.589844 1519.925781 1059.328125 1449.199219 1059.328125 1449.199219 Z M 1136.570312 1385.480469 C 1136.570312 1385.480469 1128.808594 1398.46875 1122.789062 1433.703125 C 1116.769531 1468.9375 1115.378906 1482.742188 1115.378906 1482.742188 C 1115.378906 1482.742188 1123.648438 1479.421875 1129.28125 1455.417969 C 1134.921875 1431.410156 1136.570312 1385.480469 1136.570312 1385.480469 Z M 1004.660156 1657.316406 C 1004.660156 1657.316406 1011.308594 1644.816406 1016.261719 1598.84375 C 1021.199219 1552.878906 1022.640625 1529.511719 1022.640625 1529.511719 C 1022.640625 1529.511719 1013.210938 1536.335938 1008.378906 1570.105469 C 1003.558594 1603.867188 1004.660156 1657.316406 1004.660156 1657.316406 Z M 1174.808594 1534.925781 C 1174.808594 1534.925781 1183.46875 1521.523438 1194.539062 1471.03125 C 1205.621094 1420.535156 1210.191406 1395.039062 1210.191406 1395.039062 C 1210.191406 1395.039062 1199.230469 1402.234375 1189.839844 1439.183594 C 1180.449219 1476.136719 1174.808594 1534.925781 1174.808594 1534.925781 Z M 1089.738281 1664.441406 C 1089.738281 1664.441406 1097.558594 1649.613281 1107.308594 1592.554688 C 1117.070312 1535.5 1121.171875 1505.558594 1121.171875 1505.558594 C 1121.171875 1505.558594 1110.890625 1514.636719 1102.488281 1556.824219 C 1094.089844 1599.003906 1089.738281 1664.441406 1089.738281 1664.441406 Z M 1103.011719 1355.109375 C 1103.011719 1355.109375 1092.589844 1383.808594 1082.960938 1453.570312 C 1073.328125 1523.332031 1070.929688 1547.15625 1070.929688 1547.15625 C 1070.929688 1547.15625 1080.21875 1540.890625 1088.550781 1494.746094 C 1096.878906 1448.601562 1103.011719 1355.109375 1103.011719 1355.109375 Z M 1012.78125 1118.78125 C 1012.78125 1118.78125 1004.800781 1136.46875 1001.179688 1184.828125 C 997.554688 1233.179688 997.160156 1251.328125 997.160156 1251.328125 C 997.160156 1251.328125 1006.609375 1247.269531 1010.960938 1214.691406 C 1015.300781 1182.109375 1012.78125 1118.78125 1012.78125 1118.78125 Z M 1135.628906 1145.351562 C 1135.628906 1145.351562 1125.871094 1168.75 1117.429688 1228.261719 C 1108.988281 1287.78125 1106.878906 1309.820312 1106.878906 1309.820312 C 1106.878906 1309.820312 1116.199219 1304.601562 1123.738281 1264.550781 C 1131.269531 1224.5 1135.628906 1145.351562 1135.628906 1145.351562 Z M 1114.730469 946.019531 C 1114.730469 946.019531 1103.179688 984.769531 1092.738281 1077.25 C 1082.300781 1169.730469 1079.699219 1200.640625 1079.699219 1200.640625 C 1079.699219 1200.640625 1089.949219 1192.859375 1098.929688 1131.980469 C 1107.910156 1071.089844 1114.730469 946.019531 1114.730469 946.019531 Z M 1035.851562 1300.769531 C 1035.851562 1300.769531 1044.640625 1281.390625 1052.46875 1204.148438 C 1060.300781 1126.910156 1063.011719 1086.101562 1063.011719 1086.101562 C 1063.011719 1086.101562 1050.421875 1098.160156 1043.101562 1155.378906 C 1035.789062 1212.589844 1035.851562 1300.769531 1035.851562 1300.769531 Z M 1250.230469 1598.300781 C 1250.230469 1598.300781 1240.128906 1612.207031 1229.640625 1649.746094 C 1219.148438 1687.285156 1216.191406 1701.230469 1216.191406 1701.230469 C 1216.191406 1701.230469 1225.5 1697.609375 1234.308594 1672.351562 C 1243.140625 1647.09375 1250.230469 1598.300781 1250.230469 1598.300781 Z M 1182.949219 1743.554688 C 1182.949219 1743.554688 1181.78125 1733.84375 1188.949219 1702.105469 C 1196.121094 1670.367188 1200.199219 1655.136719 1200.199219 1655.136719 C 1200.199219 1655.136719 1201.148438 1675.113281 1196.839844 1697.71875 C 1192.519531 1720.324219 1182.949219 1743.554688 1182.949219 1743.554688 Z M 1152.789062 1767.828125 C 1152.789062 1767.828125 1150.28125 1754.066406 1160.449219 1704.390625 C 1170.621094 1654.714844 1176.75 1629.257812 1176.75 1629.257812 C 1176.75 1629.257812 1183.761719 1638.53125 1177.46875 1675.328125 C 1171.179688 1712.121094 1152.789062 1767.828125 1152.789062 1767.828125 Z M 1213.78125 1515.171875 C 1213.78125 1515.171875 1206.191406 1525.734375 1199.039062 1555.453125 C 1191.890625 1585.175781 1189.871094 1596.804688 1189.871094 1596.804688 C 1189.871094 1596.804688 1197.550781 1594.15625 1203.808594 1573.921875 C 1210.070312 1553.683594 1213.78125 1515.171875 1213.78125 1515.171875 Z M 1215.480469 1627.289062 C 1215.480469 1627.289062 1224.191406 1614.503906 1236.738281 1566.90625 C 1249.289062 1519.3125 1254.769531 1495.027344 1254.769531 1495.027344 C 1254.769531 1495.027344 1244.25 1502.085938 1233.800781 1537.054688 C 1223.351562 1572.023438 1215.480469 1627.289062 1215.480469 1627.289062 Z M 812.707031 1615.519531 C 812.707031 1615.519531 807.003906 1629.566406 808.703125 1667.074219 C 810.398438 1704.570312 812.015625 1718.660156 812.015625 1718.660156 C 812.015625 1718.660156 820.636719 1715.003906 821.269531 1689.765625 C 821.898438 1664.535156 812.707031 1615.519531 812.707031 1615.519531 Z M 791.59375 1760.867188 C 791.59375 1760.867188 787.007812 1751.136719 783.789062 1719.421875 C 780.574219 1687.710938 779.628906 1672.394531 779.628906 1672.394531 C 779.628906 1672.394531 787.496094 1692.351562 790.636719 1714.984375 C 793.777344 1737.613281 791.59375 1760.867188 791.59375 1760.867188 Z M 906.640625 1651.105469 C 906.683594 1648.894531 913.507812 1657.246094 914.625 1685.488281 C 914.828125 1690.742188 912.300781 1774.707031 911.433594 1784.859375 C 911.433594 1784.859375 908.335938 1759.339844 906.867188 1744.144531 C 906.699219 1742.355469 906.585938 1653.316406 906.640625 1651.105469 Z M 931.007812 1814.230469 C 931.007812 1814.230469 926.523438 1821.554688 925.378906 1841.890625 C 924.234375 1862.226562 924.457031 1870.316406 924.457031 1870.316406 C 924.457031 1870.316406 930.367188 1868.234375 932.28125 1854.3125 C 934.195312 1840.390625 931.007812 1814.230469 931.007812 1814.230469 Z M 906.703125 1798.507812 C 906.703125 1798.507812 902.273438 1805.628906 901.597656 1825.207031 C 900.921875 1844.78125 901.296875 1852.542969 901.296875 1852.542969 C 901.296875 1852.542969 907.246094 1850.609375 908.90625 1837.226562 C 910.570312 1823.847656 906.703125 1798.507812 906.703125 1798.507812 Z M 879.605469 1697.414062 C 879.605469 1697.414062 874.96875 1705.710938 874.765625 1728.847656 C 874.5625 1751.988281 875.175781 1761.0625 875.175781 1761.0625 C 875.175781 1761.0625 881.6875 1758.652344 883.109375 1742.835938 C 884.53125 1727.023438 879.605469 1697.414062 879.605469 1697.414062 Z M 932.296875 1795.210938 C 932.296875 1795.210938 937.660156 1785.71875 939.617188 1752.285156 C 941.578125 1718.855469 941.726562 1702.378906 941.726562 1702.378906 C 941.726562 1702.378906 933.738281 1707.175781 931.140625 1731.433594 C 928.542969 1755.691406 932.296875 1795.210938 932.296875 1795.210938 Z M 847.914062 1678.105469 C 847.914062 1678.105469 843.191406 1696.574219 844.363281 1742.375 C 845.542969 1788.183594 846.71875 1804.628906 846.71875 1804.628906 C 846.71875 1804.628906 853.691406 1800.304688 854.476562 1769.527344 C 855.253906 1738.757812 847.914062 1678.105469 847.914062 1678.105469 Z M 789.015625 1225.660156 C 789.015625 1225.660156 782.054688 1249.378906 785.242188 1310.941406 C 788.425781 1372.488281 790.789062 1394.230469 790.789062 1394.230469 C 790.789062 1394.230469 801.625 1389.179688 801.84375 1348.179688 C 802.058594 1307.179688 789.015625 1225.660156 789.015625 1225.660156 Z M 766.109375 1460.738281 C 766.109375 1460.738281 760.027344 1446.039062 754.925781 1395.050781 C 749.820312 1344.058594 748.144531 1318.929688 748.144531 1318.929688 C 748.144531 1318.929688 758.871094 1351.75 763.535156 1388.019531 C 768.199219 1424.300781 766.109375 1460.738281 766.109375 1460.738281 Z M 737.777344 1498.023438 C 737.777344 1498.023438 728.164062 1477.402344 718.28125 1397.828125 C 708.398438 1318.261719 704.363281 1275.421875 704.363281 1275.421875 C 704.363281 1275.421875 718.195312 1291.558594 727.144531 1351.300781 C 736.089844 1411.035156 737.777344 1498.023438 737.777344 1498.023438 Z M 746.285156 1532.273438 C 746.285156 1532.273438 742.019531 1542.941406 744.605469 1572.6875 C 747.195312 1602.429688 749.019531 1614.175781 749.019531 1614.175781 C 749.019531 1614.175781 756.121094 1611.441406 755.828125 1591.207031 C 755.527344 1570.96875 746.285156 1532.273438 746.285156 1532.273438 Z M 910.574219 1287.609375 C 910.632812 1284.011719 919.566406 1297.96875 920.816406 1343.851562 C 921.050781 1352.429688 917.617188 1485.496094 916.507812 1501.328125 C 916.507812 1501.328125 912.691406 1461.351562 910.78125 1437.550781 C 910.570312 1434.78125 910.515625 1291.199219 910.574219 1287.609375 Z M 940.625 1547.207031 C 940.625 1547.207031 934.988281 1558.382812 933.488281 1589.109375 C 931.984375 1619.839844 932.167969 1631.679688 932.167969 1631.679688 C 932.167969 1631.679688 939.3125 1628.8125 941.777344 1607.964844 C 944.238281 1587.117188 940.625 1547.207031 940.625 1547.207031 Z M 910.507812 1522.425781 C 910.507812 1522.425781 905.015625 1533.257812 904.171875 1563.101562 C 903.335938 1592.945312 903.789062 1604.59375 903.789062 1604.59375 C 903.789062 1604.59375 911.074219 1601.855469 913.160156 1581.554688 C 915.242188 1561.25 910.507812 1522.425781 910.507812 1522.425781 Z M 847.515625 1546.699219 C 847.515625 1546.699219 842.707031 1560.820312 843.433594 1597.992188 C 844.160156 1635.171875 845.238281 1649.261719 845.238281 1649.261719 C 845.238281 1649.261719 852.230469 1645.757812 853.1875 1620.492188 C 854.140625 1595.222656 847.515625 1546.699219 847.515625 1546.699219 Z M 806.648438 1428.257812 C 806.648438 1428.257812 802.167969 1450.511719 804.96875 1506 C 807.765625 1561.484375 809.589844 1581.488281 809.589844 1581.488281 C 809.589844 1581.488281 816.824219 1576.390625 816.617188 1539.230469 C 816.40625 1502.070312 806.648438 1428.257812 806.648438 1428.257812 Z M 876.269531 1362.289062 C 876.269531 1362.289062 870.449219 1375.601562 870.363281 1412.414062 C 870.28125 1449.226562 871.109375 1463.375 871.109375 1463.375 C 871.109375 1463.375 879.246094 1460.042969 880.949219 1435.078125 C 882.65625 1410.113281 876.269531 1362.289062 876.269531 1362.289062 Z M 786.296875 1644.671875 C 786.296875 1644.671875 791.074219 1631.824219 788.09375 1584.09375 C 785.105469 1536.363281 782.539062 1512.039062 782.539062 1512.039062 C 782.539062 1512.039062 773.886719 1519.167969 774.820312 1554.21875 C 775.753906 1589.273438 786.296875 1644.671875 786.296875 1644.671875 Z M 942.390625 1517.792969 C 942.390625 1517.792969 949.121094 1503.695312 951.910156 1451.210938 C 954.691406 1398.730469 954.976562 1371.929688 954.976562 1371.929688 C 954.976562 1371.929688 944.851562 1379.628906 941.445312 1418.089844 C 938.035156 1456.539062 942.390625 1517.792969 942.390625 1517.792969 Z M 876.148438 1651.847656 C 876.148438 1651.847656 881.660156 1636.730469 881.929688 1577.511719 C 882.207031 1518.285156 881.269531 1487.136719 881.269531 1487.136719 C 881.269531 1487.136719 872.042969 1496.535156 870.660156 1540.476562 C 869.285156 1584.40625 876.148438 1651.847656 876.148438 1651.847656 Z M 835.753906 1330.21875 C 835.753906 1330.21875 829.953125 1360.449219 832.148438 1433.066406 C 834.347656 1505.6875 836.019531 1530.328125 836.019531 1530.328125 C 836.019531 1530.328125 844.609375 1524.117188 845.207031 1475.992188 C 845.800781 1427.871094 835.753906 1330.21875 835.753906 1330.21875 Z M 955.199219 1114.089844 C 955.199219 1114.089844 947.71875 1133.199219 945.535156 1185.058594 C 943.355469 1236.929688 943.519531 1256.339844 943.519531 1256.339844 C 943.519531 1256.339844 952.71875 1251.789062 956.117188 1216.890625 C 959.507812 1181.988281 955.199219 1114.089844 955.199219 1114.089844 Z M 915.753906 1070.019531 C 915.753906 1070.019531 908.582031 1088.640625 907.464844 1139.769531 C 906.347656 1190.921875 907.003906 1210.261719 907.003906 1210.261719 C 907.003906 1210.261719 916.425781 1206.21875 919.164062 1171.769531 C 921.902344 1137.328125 915.753906 1070.019531 915.753906 1070.019531 Z M 833.03125 1110.058594 C 833.03125 1110.058594 826.835938 1134.269531 828.519531 1197.019531 C 830.199219 1259.761719 831.863281 1282.75 831.863281 1282.75 C 831.863281 1282.75 840.777344 1277.28125 841.628906 1235.160156 C 842.476562 1193.039062 833.03125 1110.058594 833.03125 1110.058594 Z M 755.742188 1273.339844 C 755.742188 1273.339844 761.558594 1253.230469 755.996094 1171.910156 C 750.4375 1090.589844 746.070312 1047.398438 746.070312 1047.398438 C 746.070312 1047.398438 734.96875 1060.429688 737.5625 1120.648438 C 740.164062 1180.871094 755.742188 1273.339844 755.742188 1273.339844 Z M 871.511719 1287.949219 C 871.511719 1287.949219 878.550781 1264.421875 878.402344 1163.828125 C 878.257812 1063.230469 876.785156 1007.101562 876.785156 1007.101562 C 876.785156 1007.101562 864.625 1024.109375 863.316406 1100.039062 C 862.003906 1175.960938 871.511719 1287.949219 871.511719 1287.949219 Z M 715.222656 1580.402344 C 715.222656 1580.402344 711.328125 1591.300781 714.757812 1620.988281 C 718.191406 1650.6875 720.304688 1662.242188 720.304688 1662.242188 C 720.304688 1662.242188 727.0625 1659.28125 726.1875 1639.097656 C 725.308594 1618.90625 715.222656 1580.402344 715.222656 1580.402344 Z M 712.234375 1552.105469 C 712.234375 1552.105469 716.804688 1538.691406 711.191406 1487.964844 C 705.582031 1437.238281 701.601562 1411.621094 701.601562 1411.621094 C 701.601562 1411.621094 692.628906 1418.960938 695.351562 1456.078125 C 698.078125 1493.203125 712.234375 1552.105469 712.234375 1552.105469 "/>
<path fill-rule="evenodd" fill="rgb(48.631287%, 42.747498%, 40.380859%)" fill-opacity="1" d="M 1109.429688 2023.710938 C 1109.429688 2023.710938 1158.019531 2009.429688 1152.671875 1987.007812 C 1147.320312 1964.585938 1085.769531 1744.703125 1224.199219 1625.800781 C 1362.628906 1506.894531 1446.019531 1533.289062 1458.371094 1646.433594 C 1470.730469 1759.578125 1390.148438 2043.566406 1255.929688 2085.851562 C 1121.710938 2128.136719 1080.511719 2084.210938 1080.511719 2084.210938 C 1080.511719 2084.210938 1076.949219 2046.882812 1083.480469 2034.070312 C 1090.011719 2021.261719 1109.429688 2023.710938 1109.429688 2023.710938 "/>
<path fill-rule="evenodd" fill="rgb(48.631287%, 42.747498%, 40.380859%)" fill-opacity="1" d="M 805.667969 2029.460938 C 805.667969 2029.460938 757.066406 2015.214844 762.402344 1992.785156 C 767.742188 1970.359375 829.164062 1750.445312 690.664062 1631.621094 C 552.167969 1512.796875 468.792969 1539.238281 456.503906 1652.390625 C 444.214844 1765.542969 524.957031 2049.484375 659.203125 2091.691406 C 793.445312 2133.898438 834.621094 2089.949219 834.621094 2089.949219 C 834.621094 2089.949219 838.160156 2052.617188 831.621094 2039.8125 C 825.082031 2027.003906 805.667969 2029.460938 805.667969 2029.460938 "/>
<path fill-rule="evenodd" fill="rgb(41.184998%, 33.738708%, 31.37207%)" fill-opacity="1" d="M 1065.089844 1427.722656 C 1334.300781 1357.421875 1317.148438 1043.179688 1343.378906 1062.730469 C 1516.410156 1191.660156 1487.289062 1529.15625 1218.019531 1530.53125 C 1047.160156 1531.398438 1012.351562 1477.152344 1012.351562 1477.152344 C 1012.351562 1477.152344 1019.730469 1440.332031 1031.378906 1429.988281 C 1043.03125 1419.644531 1065.089844 1427.722656 1065.089844 1427.722656 "/>
<path fill-rule="evenodd" fill="rgb(41.184998%, 33.738708%, 31.37207%)" fill-opacity="1" d="M 859.546875 1427.722656 C 590.335938 1357.421875 607.488281 1043.179688 581.257812 1062.730469 C 408.230469 1191.660156 437.355469 1529.15625 706.621094 1530.53125 C 877.484375 1531.398438 912.289062 1477.152344 912.289062 1477.152344 C 912.289062 1477.152344 904.90625 1440.332031 893.257812 1429.988281 C 881.609375 1419.644531 859.546875 1427.722656 859.546875 1427.722656 "/>
<path fill-rule="evenodd" fill="rgb(48.631287%, 42.747498%, 40.380859%)" fill-opacity="1" d="M 1065.089844 1389 C 1334.300781 1318.699219 1317.148438 1004.460938 1343.378906 1024.011719 C 1516.410156 1152.941406 1487.289062 1490.4375 1218.019531 1491.8125 C 1047.160156 1492.679688 1012.351562 1438.429688 1012.351562 1438.429688 C 1012.351562 1438.429688 1019.730469 1401.613281 1031.378906 1391.269531 C 1043.03125 1380.921875 1065.089844 1389 1065.089844 1389 "/>
<path fill-rule="evenodd" fill="rgb(48.631287%, 42.747498%, 40.380859%)" fill-opacity="1" d="M 859.546875 1389 C 590.335938 1318.699219 607.488281 1004.460938 581.257812 1024.011719 C 408.230469 1152.941406 437.355469 1490.4375 706.621094 1491.8125 C 877.484375 1492.679688 912.289062 1438.429688 912.289062 1438.429688 C 912.289062 1438.429688 904.90625 1401.613281 893.257812 1391.269531 C 881.609375 1380.921875 859.546875 1389 859.546875 1389 "/>
<path fill-rule="evenodd" fill="rgb(41.184998%, 33.738708%, 31.37207%)" fill-opacity="1" d="M 1362.359375 514.960938 C 1386.390625 556.679688 1404.25 688.960938 1414.628906 734.398438 C 1415.25 743.351562 1415.558594 752.289062 1415.558594 761.230469 C 1415.558594 975.171875 1236.96875 1101.851562 1008.660156 1115.988281 C 994.417969 1116.859375 979.996094 1117.339844 965.386719 1117.339844 C 950.785156 1117.339844 936.34375 1116.859375 922.101562 1115.988281 C 693.800781 1101.851562 515.21875 975.171875 515.21875 761.230469 C 515.21875 752.289062 515.53125 743.351562 516.148438 734.398438 C 526.527344 688.960938 544.386719 556.679688 568.421875 514.960938 C 648.195312 376.511719 796.085938 357.578125 965.386719 357.578125 C 1134.691406 357.578125 1282.578125 376.519531 1362.359375 514.960938 Z M 925.066406 943.570312 L 1005.699219 943.570312 L 925.066406 943.570312 "/>
<path fill-rule="evenodd" fill="rgb(19.419861%, 7.389832%, 7.148743%)" fill-opacity="1" d="M 713.53125 596.820312 C 733.039062 596.820312 748.851562 618.820312 748.851562 645.960938 C 748.851562 673.101562 733.039062 695.109375 713.53125 695.109375 C 694.019531 695.109375 678.210938 673.101562 678.210938 645.960938 C 678.210938 618.820312 694.019531 596.820312 713.53125 596.820312 "/>
<path fill-rule="evenodd" fill="rgb(19.419861%, 7.389832%, 7.148743%)" fill-opacity="1" d="M 1217.25 596.820312 C 1236.761719 596.820312 1252.570312 618.820312 1252.570312 645.960938 C 1252.570312 673.101562 1236.761719 695.109375 1217.25 695.109375 C 1197.738281 695.109375 1181.929688 673.101562 1181.929688 645.960938 C 1181.929688 618.820312 1197.738281 596.820312 1217.25 596.820312 "/>
<path fill-rule="evenodd" fill="rgb(100%, 100%, 100%)" fill-opacity="1" d="M 730.003906 612.171875 C 736.152344 612.171875 741.132812 617.148438 741.132812 623.300781 C 741.132812 629.449219 736.152344 634.429688 730.003906 634.429688 C 723.851562 634.429688 718.871094 629.449219 718.871094 623.300781 C 718.871094 617.148438 723.851562 612.171875 730.003906 612.171875 Z M 716.078125 637.820312 C 719.152344 637.820312 721.644531 640.308594 721.644531 643.378906 C 721.644531 646.460938 719.152344 648.949219 716.078125 648.949219 C 713.007812 648.949219 710.515625 646.460938 710.515625 643.378906 C 710.515625 640.308594 713.007812 637.820312 716.078125 637.820312 "/>
<path fill-rule="evenodd" fill="rgb(100%, 100%, 100%)" fill-opacity="1" d="M 1234.949219 612.171875 C 1241.101562 612.171875 1246.078125 617.148438 1246.078125 623.300781 C 1246.078125 629.449219 1241.101562 634.429688 1234.949219 634.429688 C 1228.800781 634.429688 1223.820312 629.449219 1223.820312 623.300781 C 1223.820312 617.148438 1228.800781 612.171875 1234.949219 612.171875 Z M 1221.03125 637.820312 C 1224.101562 637.820312 1226.589844 640.308594 1226.589844 643.378906 C 1226.589844 646.460938 1224.101562 648.949219 1221.03125 648.949219 C 1217.960938 648.949219 1215.460938 646.460938 1215.460938 643.378906 C 1215.460938 640.308594 1217.960938 637.820312 1221.03125 637.820312 "/>
<path fill-rule="evenodd" fill="rgb(56.443787%, 46.679688%, 34.521484%)" fill-opacity="1" d="M 1214.851562 765.328125 C 1238.070312 765.328125 1256.890625 778.128906 1256.890625 793.941406 C 1256.890625 809.738281 1238.070312 822.539062 1214.851562 822.539062 C 1191.628906 822.539062 1172.808594 809.738281 1172.808594 793.941406 C 1172.808594 778.128906 1191.628906 765.328125 1214.851562 765.328125 "/>
<path fill-rule="evenodd" fill="rgb(56.443787%, 46.679688%, 34.521484%)" fill-opacity="1" d="M 684.714844 764.378906 C 707.933594 764.378906 726.753906 777.390625 726.753906 793.460938 C 726.753906 809.519531 707.933594 822.539062 684.714844 822.539062 C 661.492188 822.539062 642.671875 809.519531 642.671875 793.460938 C 642.671875 777.390625 661.492188 764.378906 684.714844 764.378906 "/>
<path fill-rule="evenodd" fill="rgb(56.443787%, 46.679688%, 34.521484%)" fill-opacity="1" d="M 820.730469 770.671875 C 811.058594 795.511719 803.160156 823.488281 802.695312 849.378906 C 801.433594 918.460938 810.238281 944.851562 930.828125 944.851562 C 1051.421875 944.851562 1168.238281 962.429688 1097.890625 797.871094 C 1056.75 701.609375 1007.378906 652.140625 949.648438 656.789062 C 904.414062 660.429688 849.253906 697.410156 820.730469 770.671875 "/>
<path fill-rule="evenodd" fill="rgb(19.419861%, 7.389832%, 7.148743%)" fill-opacity="1" d="M 965.386719 806.511719 C 998.65625 806.511719 1025.628906 775.089844 1025.628906 745.300781 C 1025.628906 715.511719 993.222656 716.03125 959.953125 716.03125 C 926.683594 716.03125 905.140625 715.511719 905.140625 745.300781 C 905.140625 775.089844 932.117188 806.511719 965.386719 806.511719 "/>
<path fill-rule="nonzero" fill="rgb(19.419861%, 7.389832%, 7.148743%)" fill-opacity="1" d="M 956.132812 854.558594 L 959.015625 718.328125 L 969.839844 733.171875 L 973.472656 853.871094 C 1015.75 849.769531 1035.121094 820.179688 1050.199219 846.441406 C 958.90625 899 882.960938 853.570312 882.75 853.441406 C 899.53125 825.171875 907.082031 853.730469 956.132812 854.558594 "/>
<path fill-rule="evenodd" fill="rgb(41.184998%, 33.738708%, 31.37207%)" fill-opacity="1" d="M 1199.601562 377.71875 C 1197.398438 367.480469 1201.800781 324.339844 1239.808594 300.21875 C 1277.828125 276.089844 1381.648438 293.628906 1387.5 363.820312 C 1393.351562 434.011719 1337.789062 463.980469 1301.960938 474.21875 C 1266.128906 484.460938 1241.28125 474.960938 1236.890625 470.570312 C 1232.5 466.179688 1199.601562 377.71875 1199.601562 377.71875 "/>
<path fill-rule="evenodd" fill="rgb(19.419861%, 7.389832%, 7.148743%)" fill-opacity="1" d="M 1247.851562 395.988281 C 1247.851562 395.988281 1270.519531 412.808594 1280.019531 428.890625 C 1289.53125 444.96875 1304.878906 442.050781 1310.730469 428.890625 C 1345.46875 350.738281 1258.261719 320.449219 1247.851562 395.988281 "/>
<path fill-rule="evenodd" fill="rgb(41.184998%, 33.738708%, 31.37207%)" fill-opacity="1" d="M 731.171875 377.71875 C 733.367188 367.480469 728.96875 324.339844 690.957031 300.21875 C 652.945312 276.089844 549.121094 293.628906 543.273438 363.820312 C 537.425781 434.011719 592.980469 463.980469 628.8125 474.21875 C 664.640625 484.460938 689.492188 474.960938 693.882812 470.570312 C 698.273438 466.179688 731.171875 377.71875 731.171875 377.71875 "/>
<path fill-rule="evenodd" fill="rgb(19.419861%, 7.389832%, 7.148743%)" fill-opacity="1" d="M 682.917969 395.988281 C 682.917969 395.988281 660.253906 412.808594 650.75 428.890625 C 641.246094 444.96875 625.894531 442.050781 620.042969 428.890625 C 585.300781 350.738281 672.507812 320.449219 682.917969 395.988281 "/>
</svg>
